# xmcd
#
# Track frame offsets:
#	150
#	18667
#	39262
#	59854
#	82256
#	107955
#	125732
#	148021
#	174855
#	192513
#	221611
#	243199
#	272645
#
# Disc length: 3872 seconds
#
# Revision: 0
# Processed by: cddbd v1.5PL3 Copyright (c) Steve Scherf et al.
# Submitted via: dBpowerAMP V4.0
#
DISCID=c70f1e0d
DTITLE=Linwood Taylor Band - Make Room for the Paying Customer
DYEAR=1900
DGENRE=blues
TTITLE0=Black Cat Bone
TTITLE1=Psychic
TTITLE2=Can't Get A Woman
TTITLE3=Boogie Man
TTITLE4=Same Thing
TTITLE5=Charm City Pt.2
TTITLE6=Mercy
TTITLE7=Good Morning Little School Girl
TTITLE8=Don't Burn Down The Bridge
TTITLE9=Don't Dis Me
TTITLE10=Blues Man
TTITLE11=G Thang
TTITLE12=DATA
EXTD=Linwood Taylor
EXTT0=
EXTT1=
EXTT2=
EXTT3=
EXTT4=
EXTT5=
EXTT6=
EXTT7=
EXTT8=
EXTT9=
EXTT10=
EXTT11=
EXTT12=
PLAYORDER=
